<svg width="176" height="188" viewBox="0 0 176 188" fill="none" xmlns="http://www.w3.org/2000/svg">
<path d="M104.512 159.487C110.283 165.258 118.819 167.791 128.242 166.529C137.665 165.267 147.203 160.313 154.758 152.758C162.314 145.203 167.267 135.664 168.529 126.241C169.791 116.818 167.258 108.283 161.487 102.512C155.717 96.7412 147.181 94.2082 137.758 95.4702C128.335 96.7321 118.797 101.686 111.241 109.241C103.686 116.796 98.7326 126.335 97.4707 135.758C96.2087 145.181 98.7417 153.716 104.512 159.487Z" stroke="white" stroke-width="2" stroke-linecap="round" stroke-linejoin="round"/>
<path d="M160.95 103.049C161.666 138.166 104.333 123.833 105.05 158.949" stroke="white" stroke-width="2" stroke-linecap="round" stroke-linejoin="round"/>
<g clip-path="url(#clip0_1060_4945)">
<path d="M71.5928 168.422C79.1342 165.303 84.7443 158.389 87.1891 149.202C89.6338 140.015 88.7129 129.306 84.629 119.433C80.545 109.559 73.6325 101.329 65.4122 96.5529C57.1918 91.7768 48.337 90.8461 40.7956 93.9654C33.2543 97.0847 27.6441 103.998 25.1994 113.186C22.7546 122.373 23.6755 133.082 27.7595 142.955C31.8435 152.829 38.7559 161.059 46.9763 165.835C55.1966 170.611 64.0515 171.542 71.5928 168.422Z" stroke="white" stroke-width="2" stroke-linecap="round" stroke-linejoin="round"/>
<path d="M41.0866 94.6679C73.798 107.461 38.5913 154.927 71.3027 167.72" stroke="white" stroke-width="2" stroke-linecap="round" stroke-linejoin="round"/>
</g>
<path d="M141.154 18.4784C133.721 11.3924 122.907 8.46254 111.091 10.3334C99.2749 12.2043 87.4246 18.7226 78.1472 28.4545C68.8697 38.1863 62.9251 50.3345 61.6209 62.2265C60.3167 74.1185 63.7599 84.7803 71.193 91.8663C78.6261 98.9523 89.4402 101.882 101.256 100.011C113.072 98.1404 124.923 91.6221 134.2 81.8902C143.478 72.1584 149.422 60.0102 150.726 48.1182C152.031 36.2262 148.587 25.5644 141.154 18.4784Z" stroke="white" stroke-width="2" stroke-linecap="round" stroke-linejoin="round"/>
<path d="M71.853 91.1739C69.8954 47.0186 142.452 63.3259 140.494 19.1706" stroke="white" stroke-width="2" stroke-linecap="round" stroke-linejoin="round"/>
<defs>
<clipPath id="clip0_1060_4945">
<rect width="86" height="86" fill="white" transform="translate(0 154.437) rotate(-67.4712)"/>
</clipPath>
</defs>
</svg>
