<svg width="100" height="100" viewBox="0 0 100 100" fill="none" xmlns="http://www.w3.org/2000/svg">
<g clip-path="url(#clip0_836_449)">
<path fill-rule="evenodd" clip-rule="evenodd" d="M100 50C100 77.625 77.625 100 50 100C22.375 100 0 77.625 0 50C0 22.375 22.375 0 50 0C77.625 0 100 22.375 100 50ZM39.75 92.5625V83.25C27.875 85.9125 25.3125 77.925 25.3125 77.925C23.4 72.75 20.575 71.425 20.575 71.425C16.6875 68.6875 20.8562 68.6875 20.8562 68.6875C25.1687 68.9812 27.4188 73.275 27.4188 73.275C31.2375 80.0875 37.4188 78.1562 39.8563 76.975C40.2125 74.0875 41.3438 72.0938 42.5438 70.9813C33.0438 69.9437 23.1063 66.1 23.1063 48.9188C23.1063 44.0375 24.8 40.0438 27.4938 36.9188C27.0688 35.8125 25.5812 31.225 27.9188 25.1063C27.9188 25.1063 31.525 23.925 39.6688 29.6938C43.148 28.7196 46.7432 28.2213 50.3563 28.2125C53.9625 28.2125 57.6688 28.7312 61.0438 29.6938C69.1688 23.925 72.7938 25.1063 72.7938 25.1063C75.1312 31.2438 73.6438 35.8563 73.2188 36.9188C75.9813 40.025 77.6062 44.0438 77.6062 48.9188C77.6062 66.1063 67.6062 69.8563 58.1063 70.9813C59.6688 72.3875 61.2375 75.05 61.2375 79.2938V92.3563C70.5743 89.8866 78.8314 84.3969 84.7216 76.7431C90.6117 69.0893 93.8038 59.7016 93.8 50.0438C93.8 25.8563 74.2375 6.29375 50.05 6.29375C25.8625 6.29375 6.3 25.8563 6.3 50.0438C6.3 70.6687 20.6125 87.9813 39.8 92.6063L39.75 92.5625Z" fill="white"/>
</g>
<defs>
<clipPath id="clip0_836_449">
<rect width="100" height="100" fill="white"/>
</clipPath>
</defs>
</svg>
