<svg width="61" height="61" viewBox="0 0 61 61" fill="none" xmlns="http://www.w3.org/2000/svg">
<circle cx="30.5" cy="30.5" r="30.5" fill="white"/>
<path d="M42.4583 15.125C43.3645 15.125 44.2335 15.485 44.8743 16.1257C45.515 16.7665 45.875 17.6355 45.875 18.5417V42.4583C45.875 43.3645 45.515 44.2335 44.8743 44.8743C44.2335 45.515 43.3645 45.875 42.4583 45.875H18.5417C17.6355 45.875 16.7665 45.515 16.1257 44.8743C15.485 44.2335 15.125 43.3645 15.125 42.4583V18.5417C15.125 17.6355 15.485 16.7665 16.1257 16.1257C16.7665 15.485 17.6355 15.125 18.5417 15.125H42.4583ZM41.6042 41.6042V32.55C41.6042 31.073 41.0174 29.6564 39.973 28.612C38.9286 27.5676 37.512 26.9808 36.035 26.9808C34.5829 26.9808 32.8917 27.8692 32.0717 29.2017V27.3054H27.3054V41.6042H32.0717V33.1821C32.0717 31.8667 33.1308 30.7904 34.4463 30.7904C35.0806 30.7904 35.6889 31.0424 36.1374 31.4909C36.5859 31.9394 36.8379 32.5478 36.8379 33.1821V41.6042H41.6042ZM21.7533 24.6233C22.5145 24.6233 23.2445 24.321 23.7827 23.7827C24.321 23.2445 24.6233 22.5145 24.6233 21.7533C24.6233 20.1646 23.3421 18.8663 21.7533 18.8663C20.9876 18.8663 20.2533 19.1704 19.7119 19.7119C19.1704 20.2533 18.8663 20.9876 18.8663 21.7533C18.8663 23.3421 20.1646 24.6233 21.7533 24.6233ZM24.1279 41.6042V27.3054H19.3958V41.6042H24.1279Z" fill="black"/>
</svg>
