<svg width="231" height="130" viewBox="0 0 231 130" fill="none" xmlns="http://www.w3.org/2000/svg">
<path d="M129.77 55.9802C131.686 87.6836 150.732 112.58 173.944 112.58C197.156 112.58 216.201 87.6836 218.118 55.9802H214.562C213.661 70.2805 209.133 83.0113 202.403 92.4029C194.853 102.941 184.742 109.043 173.944 109.043C163.146 109.043 153.035 102.941 145.484 92.4029C138.755 83.0113 134.227 70.2805 133.326 55.9802H129.77Z" fill="white"/>
<path d="M129.77 55.9802C131.686 85.245 150.732 108.23 173.945 108.23C197.157 108.23 216.202 85.245 218.118 55.9802L214.564 55.9836C212.665 84.0282 194.503 104.693 173.945 104.693C153.386 104.693 135.225 84.0248 133.326 55.9802H129.77Z" fill="white"/>
<path d="M129.77 55.987C131.686 62.0839 150.732 66.8719 173.944 66.8719C197.157 66.8719 216.202 62.0839 218.119 55.987H213.785C213.549 56.176 213.254 56.3879 212.887 56.6209C211.075 57.7708 208.217 58.9385 204.37 59.9712C196.726 62.0227 185.967 63.3345 173.944 63.3345C161.922 63.3345 151.163 62.0227 143.519 59.9712C139.672 58.9385 136.814 57.7708 135.002 56.6209C134.635 56.3879 134.34 56.176 134.104 55.987H129.77Z" fill="white"/>
<path d="M129.77 110.408C131.687 118.944 150.733 125.646 173.945 125.646C197.157 125.646 216.202 118.944 218.119 110.408H214.383C214.055 111.111 213.454 111.924 212.432 112.832C210.629 114.434 207.818 116.038 204.04 117.458C196.512 120.286 185.872 122.109 173.945 122.109C162.017 122.109 151.378 120.286 143.849 117.458C140.071 116.038 137.261 114.434 135.457 112.832C134.435 111.924 133.835 111.111 133.506 110.408H129.77Z" fill="white"/>
<path d="M123.144 110.408C125.349 121.382 147.251 130 173.945 130C200.638 130 222.54 121.382 224.745 110.408H221.081C220.677 111.66 219.836 113.003 218.415 114.414C216.263 116.551 212.97 118.638 208.616 120.467C199.923 124.119 187.667 126.463 173.945 126.463C160.222 126.463 147.966 124.119 139.273 120.467C134.919 118.638 131.626 116.551 129.474 114.414C128.053 113.003 127.212 111.66 126.808 110.408H123.144Z" fill="white"/>
<path d="M209.285 86.4535C218.763 88.2336 227.883 83.4626 230.102 75.2987C232.322 67.1348 226.844 58.5086 217.733 55.3797L216.802 58.8027C224.41 61.5157 228.273 68.5011 226.671 74.3926C225.07 80.284 218.18 84.43 210.216 83.0304L209.285 86.4535Z" fill="white"/>
<path d="M209.094 84.4409C209.098 84.442 209.102 84.443 209.106 84.4441C215.855 86.2264 222.81 82.211 224.642 75.4754C226.473 68.7399 222.486 61.8349 215.738 60.0527C215.733 60.0516 215.729 60.0505 215.725 60.0495L214.797 63.4638C214.801 63.4649 214.805 63.4659 214.809 63.467C219.654 64.7463 222.531 69.71 221.21 74.5693C219.889 79.4287 214.879 82.3091 210.035 81.0298C210.031 81.0287 210.026 81.0277 210.022 81.0266L209.094 84.4409Z" fill="white"/>
<path d="M218.119 55.987C216.202 49.8901 197.157 45.1021 173.945 45.1021C150.733 45.1021 131.686 49.8901 129.77 55.987H134.104C134.34 55.798 134.635 55.5861 135.002 55.3531C136.814 54.2032 139.672 53.0355 143.52 52.0028C151.164 49.9513 161.922 48.6395 173.945 48.6395C185.968 48.6395 196.726 49.9513 204.37 52.0028C208.218 53.0355 211.075 54.2032 212.888 55.3531C213.255 55.5861 213.549 55.798 213.785 55.987H218.119Z" fill="white"/>
<path d="M217.303 90.5111C217.781 90.5139 218.253 90.5705 218.711 90.6847C219.165 90.798 219.584 90.9624 219.964 91.1717C219.549 92.051 218.489 93.1673 217.261 94.1202C215.979 95.1151 214.51 95.9605 213.56 96.3417L213.549 96.3462L213.538 96.3508C212.666 96.7244 212.049 97.3122 211.692 97.9608C211.462 98.3783 211.329 98.8157 211.251 99.2604C210.552 98.806 209.815 98.4421 209.066 98.178C209.123 97.3574 209.34 96.497 209.734 95.6354C210.561 93.8285 212.006 92.3738 213.642 91.4866C214.819 90.849 216.081 90.504 217.303 90.5111ZM221.411 92.407C221.686 92.7626 221.911 93.159 222.082 93.5895C222.654 95.0269 222.608 96.83 221.781 98.637C221.28 99.7306 220.553 100.695 219.694 101.483C218.848 101.694 218.011 102.02 217.225 102.462C216.618 102.804 216.077 103.195 215.608 103.621C215.455 103.652 215.301 103.678 215.148 103.699C214.857 103.065 214.479 102.435 214.013 101.823C213.731 101.453 213.422 101.097 213.087 100.759C213.084 100.526 213.086 100.301 213.099 100.085C213.135 99.5032 213.247 99.0053 213.452 98.6327C213.657 98.2601 213.923 97.9998 214.423 97.7859L214.401 97.795C215.631 97.3009 217.167 96.398 218.581 95.3008C219.704 94.4287 220.747 93.4519 221.411 92.407ZM206.37 98.4895C207.096 98.4944 207.864 98.635 208.641 98.9039C210.3 99.4777 211.964 100.641 213.196 102.256C213.826 103.082 214.279 103.944 214.56 104.789C213.455 106.334 213.184 108.109 213.98 109.6C213.851 109.753 213.707 109.897 213.55 110.03C212.387 109.193 211.046 108.5 210.092 107.788C209.571 107.399 209.177 107.014 208.958 106.647C208.738 106.28 208.663 105.944 208.777 105.486L208.784 105.459L208.788 105.432C209.221 102.82 208.461 101.284 207.355 100.345C206.464 99.59 205.578 99.1923 204.967 98.6672C205.409 98.5448 205.88 98.4861 206.37 98.4895ZM203.319 99.5629C204.213 100.489 205.315 100.917 205.974 101.476C206.731 102.118 207.253 102.891 206.872 105.2C206.689 105.985 206.85 106.739 207.225 107.367C207.607 108.005 208.177 108.524 208.801 108.99C209.748 109.697 210.84 110.303 211.754 110.894C210.717 111.118 209.538 111.009 208.336 110.594C206.678 110.02 205.013 108.857 203.782 107.242C202.55 105.626 201.995 103.876 202.076 102.381C202.138 101.238 202.562 100.258 203.319 99.5629ZM206.872 105.2C206.876 105.186 206.878 105.172 206.882 105.158L206.871 105.211C206.871 105.208 206.872 105.204 206.872 105.2ZM221.939 101.999C222.927 101.992 223.858 102.173 224.642 102.528C224.637 102.529 224.632 102.529 224.627 102.529C224.163 102.543 223.58 102.497 222.909 102.573C222.239 102.65 221.453 102.904 220.858 103.465C220.263 104.026 219.855 104.822 219.57 105.965L219.564 105.991L219.559 106.018C219.427 106.816 218.818 107.277 217.762 107.709C216.86 108.077 215.703 108.34 214.605 108.608C214.113 106.771 215.28 104.53 217.767 103.131C219.108 102.376 220.577 102.01 221.939 101.999ZM226.298 103.857C227.657 105.808 226.567 108.67 223.604 110.338C220.689 111.978 217.164 111.784 215.467 110.082C216.458 109.847 217.582 109.579 218.614 109.157C219.945 108.613 221.213 107.699 221.469 106.279C221.713 105.307 222.038 104.788 222.308 104.533C222.579 104.278 222.791 104.215 223.171 104.172C223.552 104.129 224.075 104.16 224.695 104.141C225.177 104.127 225.744 104.07 226.298 103.857ZM221.469 106.279C221.468 106.284 221.467 106.288 221.466 106.292L221.477 106.239C221.474 106.252 221.472 106.266 221.469 106.279Z" fill="white"/>
<path d="M128.761 90.5111C128.351 90.5139 127.947 90.5705 127.554 90.6847C127.164 90.798 126.805 90.9624 126.48 91.1717C126.835 92.051 127.744 93.1673 128.796 94.1202C129.895 95.1151 131.155 95.9605 131.969 96.3417L131.978 96.3462L131.987 96.3508C132.735 96.7244 133.264 97.3122 133.57 97.9608C133.767 98.3783 133.881 98.8157 133.948 99.2604C134.547 98.806 135.179 98.4421 135.821 98.178C135.772 97.3574 135.586 96.497 135.248 95.6354C134.539 93.8285 133.301 92.3738 131.898 91.4866C130.89 90.849 129.808 90.504 128.761 90.5111ZM125.24 92.407C125.004 92.7626 124.811 93.159 124.664 93.5895C124.174 95.0269 124.213 96.83 124.923 98.637C125.352 99.7306 125.975 100.695 126.711 101.483C127.436 101.694 128.154 102.02 128.827 102.462C129.348 102.804 129.812 103.195 130.214 103.621C130.345 103.652 130.476 103.678 130.607 103.699C130.857 103.065 131.181 102.435 131.581 101.823C131.823 101.453 132.087 101.097 132.374 100.759C132.377 100.526 132.375 100.301 132.364 100.085C132.333 99.5032 132.237 99.0053 132.062 98.6327C131.886 98.2601 131.657 97.9998 131.229 97.7859L131.248 97.795C130.194 97.3009 128.877 96.398 127.666 95.3008C126.702 94.4287 125.809 93.4519 125.24 92.407ZM138.132 98.4895C137.51 98.4944 136.851 98.635 136.185 98.9039C134.764 99.4777 133.337 100.641 132.281 102.256C131.741 103.082 131.353 103.944 131.112 104.789C132.059 106.334 132.291 108.109 131.609 109.6C131.719 109.753 131.842 109.897 131.977 110.03C132.975 109.193 134.124 108.5 134.941 107.788C135.388 107.399 135.726 107.014 135.914 106.647C136.102 106.28 136.166 105.944 136.069 105.486L136.063 105.459L136.059 105.432C135.688 102.82 136.339 101.284 137.288 100.345C138.051 99.59 138.81 99.1923 139.334 98.6672C138.956 98.5448 138.552 98.4861 138.132 98.4895ZM140.747 99.5629C139.981 100.489 139.036 100.917 138.471 101.476C137.823 102.118 137.375 102.891 137.701 105.2C137.858 105.985 137.72 106.739 137.399 107.367C137.072 108.005 136.583 108.524 136.048 108.99C135.237 109.697 134.3 110.303 133.517 110.894C134.405 111.118 135.417 111.009 136.446 110.594C137.868 110.02 139.295 108.857 140.35 107.242C141.406 105.626 141.882 103.876 141.812 102.381C141.759 101.238 141.396 100.258 140.747 99.5629ZM137.701 105.2C137.698 105.186 137.696 105.172 137.693 105.158L137.703 105.211C137.702 105.208 137.702 105.204 137.701 105.2ZM124.787 101.999C123.94 101.992 123.142 102.173 122.47 102.528C122.475 102.529 122.479 102.529 122.483 102.529C122.881 102.543 123.38 102.497 123.955 102.573C124.53 102.65 125.203 102.904 125.713 103.465C126.224 104.026 126.573 104.822 126.817 105.965L126.823 105.991L126.827 106.018C126.94 106.816 127.462 107.277 128.367 107.709C129.14 108.077 130.132 108.34 131.073 108.608C131.495 106.771 130.495 104.53 128.363 103.131C127.214 102.376 125.954 102.01 124.787 101.999ZM121.051 103.857C119.886 105.808 120.82 108.67 123.36 110.338C125.859 111.978 128.88 111.784 130.334 110.082C129.485 109.847 128.521 109.579 127.637 109.157C126.496 108.613 125.409 107.699 125.19 106.279C124.981 105.307 124.702 104.788 124.47 104.533C124.238 104.278 124.057 104.215 123.731 104.172C123.404 104.129 122.956 104.16 122.425 104.141C122.011 104.127 121.526 104.07 121.051 103.857ZM125.19 106.279C125.191 106.284 125.192 106.288 125.193 106.292L125.183 106.239C125.185 106.252 125.188 106.266 125.19 106.279Z" fill="white"/>
<path d="M214.618 55.7143C214.618 60.5985 196.342 64.5579 173.798 64.5579C151.254 64.5579 132.978 60.5985 132.978 55.7143C132.978 50.8302 151.254 46.8708 173.798 46.8708C196.342 46.8708 214.618 50.8302 214.618 55.7143Z" fill="white"/>
<path fill-rule="evenodd" clip-rule="evenodd" d="M145.12 36.2798C143.597 34.8325 142.538 32.9669 142.077 30.919C141.617 28.8711 141.775 26.7328 142.532 24.7745C143.288 22.8163 144.61 21.126 146.329 19.9175C148.049 18.709 150.088 18.0365 152.191 17.985C154.293 17.9336 156.363 18.5055 158.14 19.6284C159.916 20.7514 161.319 22.375 162.171 24.2938C163.024 26.2127 163.286 28.3407 162.927 30.4087C162.567 32.4767 161.601 34.3918 160.151 35.9119L152.82 43.5975L145.12 36.2798ZM158.441 34.2859L152.738 40.2641L146.749 34.5724C145.564 33.4467 144.741 31.9957 144.383 30.4029C144.024 28.8101 144.147 27.1471 144.736 25.624C145.325 24.101 146.353 22.7864 147.69 21.8464C149.027 20.9064 150.613 20.3833 152.248 20.3433C153.883 20.3032 155.494 20.748 156.875 21.6213C158.257 22.4946 159.348 23.7573 160.011 25.2497C160.674 26.7421 160.879 28.3971 160.599 30.0055C160.32 31.6139 159.568 33.1035 158.441 34.2859Z" fill="white"/>
<path fill-rule="evenodd" clip-rule="evenodd" d="M183.559 30.5263C182.417 29.4408 181.623 28.0416 181.277 26.5057C180.931 24.9697 181.05 23.366 181.618 21.8973C182.185 20.4286 183.177 19.1609 184.466 18.2546C185.755 17.3482 187.285 16.8438 188.862 16.8052C190.439 16.7666 191.991 17.1955 193.324 18.0378C194.656 18.88 195.708 20.0977 196.348 21.5368C196.987 22.976 197.184 24.572 196.914 26.123C196.644 27.674 195.92 29.1103 194.832 30.2504L189.334 36.0146L183.559 30.5263ZM193.55 29.0308L189.273 33.5145L184.781 29.2457C183.892 28.4015 183.275 27.3132 183.006 26.1186C182.737 24.924 182.829 23.6767 183.271 22.5345C183.712 21.3922 184.483 20.4062 185.486 19.7012C186.489 18.9963 187.679 18.6039 188.905 18.5739C190.131 18.5438 191.339 18.8774 192.375 19.5324C193.412 20.1874 194.23 21.1344 194.727 22.2537C195.225 23.373 195.378 24.6143 195.168 25.8206C194.959 27.0269 194.395 28.1441 193.55 29.0308Z" fill="white"/>
<path fill-rule="evenodd" clip-rule="evenodd" d="M168.217 13.7235C167.075 12.638 166.281 11.2388 165.935 9.70287C165.59 8.16693 165.708 6.56322 166.276 5.09453C166.844 3.62584 167.835 2.35815 169.124 1.45176C170.414 0.545363 171.943 0.0409808 173.52 0.00239255C175.097 -0.0361957 176.65 0.392743 177.982 1.23497C179.314 2.07719 180.367 3.29487 181.006 4.73402C181.645 6.17318 181.842 7.76916 181.572 9.32016C181.303 10.8712 180.578 12.3075 179.491 13.4476L173.992 19.2118L168.217 13.7235ZM178.208 12.228L173.931 16.7117L169.439 12.4429C168.55 11.5987 167.933 10.5104 167.664 9.31584C167.395 8.12125 167.488 6.87394 167.929 5.73166C168.371 4.58937 169.142 3.60341 170.144 2.89843C171.147 2.19346 172.337 1.80114 173.563 1.77109C174.79 1.74104 175.997 2.0746 177.034 2.7296C178.07 3.3846 178.888 4.33161 179.386 5.4509C179.883 6.57018 180.036 7.81146 179.826 9.01778C179.617 10.2241 179.053 11.3413 178.208 12.228Z" fill="white"/>
<path d="M50.4318 44.1682C51.492 44.3192 52.2113 44.6399 52.59 45.1304C53.0064 45.6209 53.2147 46.2624 53.2147 47.0548C53.2147 49.6583 51.8138 50.8657 49.012 50.6771L47.0243 50.5073C44.7904 50.3186 42.5566 50.1677 40.3228 50.0545C38.1268 49.9413 35.8172 49.8847 33.3941 49.8847H30.8384C30.384 55.4691 29.9108 60.563 29.4186 65.1663L39.1869 64.9965C40.5878 64.9965 41.5154 65.2418 41.9697 65.7323C42.4619 66.2228 42.708 66.8831 42.708 67.7132C42.708 68.9962 42.3294 70.0149 41.5722 70.7696C40.815 71.4865 39.7359 71.8449 38.335 71.8449H28.6235L28.2827 74.2787C27.4876 80.5045 25.7838 84.9381 23.1714 87.5794C20.5968 90.2206 17.0378 91.5413 12.4944 91.5413C9.91978 91.5413 7.55342 90.9941 5.3953 89.8999C3.23718 88.7679 1.64699 87.4096 0.624719 85.8248C0.20824 85.1833 0 84.4098 0 83.5042C0 82.5987 0.20824 81.8063 0.624719 81.1271C1.07906 80.4479 1.62805 80.1083 2.2717 80.1083C2.72604 80.1083 3.16145 80.2593 3.57793 80.5611C4.03227 80.863 4.6002 81.4478 5.28171 82.3157C7.09908 84.6928 9.35185 85.8814 12.04 85.8814C14.1982 85.8814 15.9966 85.0136 17.4353 83.2779C18.9119 81.5044 19.8585 78.7311 20.275 74.9579L20.6157 71.8449H17.8897C17.0188 71.8449 16.2616 71.5997 15.618 71.1092C15.0122 70.6186 14.7093 69.9206 14.7093 69.015C14.7093 67.8453 15.0122 66.9586 15.618 66.3549C16.2238 65.7134 17.1135 65.3927 18.2872 65.3927C19.3473 65.3927 20.3885 65.3738 21.4108 65.3361C21.8652 61.1855 22.3574 56.1483 22.8874 50.2243C18.7984 50.6016 15.9209 51.2619 14.2549 52.2052C12.589 53.1485 11.7561 54.5446 11.7561 56.3935C11.7561 57.6764 12.1347 58.9027 12.8919 60.0724C13.1191 60.412 13.2327 60.7516 13.2327 61.0912C13.2327 61.7704 12.8541 62.3741 12.0968 62.9024C11.3396 63.3929 10.4877 63.6381 9.54116 63.6381C8.51889 63.6381 7.64807 63.3363 6.9287 62.7326C6.47436 62.3552 6.03895 61.5817 5.62247 60.412C5.20599 59.2423 4.99775 57.9406 4.99775 56.5067C4.99775 51.8279 7.40197 48.432 12.2104 46.319C17.0567 44.206 24.1179 43.1494 33.3941 43.1494C39.8305 43.1494 45.5098 43.489 50.4318 44.1682Z" fill="white"/>
<path d="M50.6541 60.978C49.0639 60.978 47.8713 60.6196 47.0762 59.9026C46.2811 59.148 45.8835 58.1103 45.8835 56.7897C45.8835 55.4691 46.3947 54.3748 47.4169 53.507C48.4771 52.6014 49.7833 52.1486 51.3356 52.1486C52.7365 52.1486 53.8724 52.4882 54.7432 53.1674C55.614 53.8466 56.0494 54.8088 56.0494 56.0539C56.0494 57.5632 55.5572 58.7707 54.5728 59.6762C53.5884 60.5441 52.2822 60.978 50.6541 60.978ZM50.1998 91.3715C47.7388 91.3715 45.9403 90.5036 44.8045 88.7679C43.7065 87.0322 43.1575 84.7306 43.1575 81.8629C43.1575 80.1649 43.3657 77.9953 43.7822 75.3541C44.2366 72.6751 44.8045 70.1847 45.486 67.883C45.8267 66.6756 46.2811 65.8455 46.849 65.3927C47.4169 64.9399 48.3256 64.7135 49.5751 64.7135C51.506 64.7135 52.4715 65.355 52.4715 66.6379C52.4715 67.5812 52.1118 69.7697 51.3924 73.2033C50.4837 77.3539 50.0294 80.1649 50.0294 81.6365C50.0294 82.7685 50.1808 83.6363 50.4837 84.24C50.7866 84.8438 51.2978 85.1456 52.0171 85.1456C52.6987 85.1456 53.5505 84.674 54.5728 83.7307C55.5951 82.7873 56.9581 81.2969 58.6619 79.2594C59.1162 78.7311 59.6274 78.467 60.1953 78.467C60.6875 78.467 61.0661 78.6934 61.3311 79.1462C61.634 79.599 61.7855 80.2215 61.7855 81.0139C61.7855 82.5232 61.4258 83.6929 60.7064 84.523C56.9581 89.0886 53.4559 91.3715 50.1998 91.3715Z" fill="white"/>
<path d="M61.2229 91.3715C59.7841 91.3715 58.7619 90.6168 58.1561 89.1075C57.5881 87.5982 57.3042 85.1834 57.3042 81.8629C57.3042 76.9577 58.0046 72.2977 59.4055 67.883C59.7463 66.7888 60.2953 65.9964 61.0525 65.5059C61.8476 64.9776 62.9456 64.7135 64.3465 64.7135C65.1037 64.7135 65.6338 64.8078 65.9367 64.9965C66.2395 65.1852 66.391 65.5436 66.391 66.0719C66.391 66.6756 66.107 68.034 65.5391 70.147C65.1605 71.6563 64.8576 72.9769 64.6304 74.1089C64.4033 75.2409 64.2139 76.637 64.0625 78.2972C65.3119 75.0522 66.7128 72.4109 68.2652 70.3734C69.8175 68.3358 71.332 66.8831 72.8086 66.0153C74.323 65.1474 75.705 64.7135 76.9544 64.7135C79.4154 64.7135 80.6459 65.9398 80.6459 68.3924C80.6459 69.864 80.2295 72.5241 79.3965 76.3728C78.6771 79.6556 78.3174 81.8252 78.3174 82.8817C78.3174 84.391 78.8664 85.1456 79.9644 85.1456C80.7217 85.1456 81.6114 84.6928 82.6337 83.7872C83.6938 82.8439 85.0947 81.3346 86.8363 79.2594C87.2907 78.7311 87.8018 78.467 88.3697 78.467C88.8619 78.467 89.2406 78.6934 89.5056 79.1462C89.8085 79.599 89.9599 80.2215 89.9599 81.0139C89.9599 82.5232 89.6002 83.6929 88.8809 84.523C87.2528 86.5228 85.4922 88.1642 83.5992 89.4471C81.7439 90.73 79.6237 91.3715 77.2384 91.3715C75.3074 91.3715 73.8498 90.8243 72.8654 89.7301C71.881 88.5981 71.3887 86.9756 71.3887 84.8626C71.3887 83.8061 71.6538 81.9195 72.1838 79.2028C72.676 76.8256 72.9221 75.1843 72.9221 74.2787C72.9221 73.675 72.7139 73.3731 72.2974 73.3731C71.8052 73.3731 71.1048 74.0146 70.1961 75.2975C69.3253 76.5426 68.4166 78.2029 67.4701 80.2781C66.5614 82.3534 65.8231 84.5419 65.2551 86.8436C64.8387 88.617 64.3465 89.8244 63.7785 90.4659C63.2485 91.0696 62.3966 91.3715 61.2229 91.3715Z" fill="white"/>
<path d="M106.038 78.467C106.454 81.561 107.06 84.6174 107.855 87.636C108.006 88.1265 108.082 88.6359 108.082 89.1641C108.082 90.8621 107.041 91.7111 104.959 91.7111C103.785 91.7111 102.876 91.3903 102.232 90.7489C101.627 90.1074 101.059 88.9 100.529 87.1266L100.472 86.9002C99.0331 88.6736 97.7269 89.8622 96.5532 90.4659C95.4173 91.0696 94.0922 91.3715 92.5777 91.3715C90.2681 91.3715 88.3561 90.5225 86.8417 88.8245C85.3651 87.0888 84.6267 84.8438 84.6267 82.0893C84.6267 79.0707 85.2704 76.2785 86.5577 73.7127C87.845 71.1469 89.6056 69.0527 91.8394 67.4303C94.0733 65.77 96.5721 64.7701 99.336 64.4305C100.055 57.2991 101.418 51.0921 103.425 45.8096C105.47 40.527 108.177 37.8858 111.546 37.8858C113.174 37.8858 114.519 38.6216 115.579 40.0931C116.677 41.5647 117.226 43.7909 117.226 46.7718C117.226 50.9223 116.203 55.7709 114.159 61.3176C112.114 66.8643 109.407 72.5807 106.038 78.467ZM110.922 43.4324C109.824 43.4324 108.783 46.2246 107.798 51.809C106.852 57.3934 106.208 63.4684 105.867 70.0338C110.07 60.978 112.171 53.6202 112.171 47.9603C112.171 46.5265 112.039 45.4134 111.774 44.621C111.546 43.8286 111.262 43.4324 110.922 43.4324ZM94.5655 85.655C95.3227 85.655 96.0421 85.372 96.7236 84.806C97.4429 84.24 98.3516 83.1458 99.4496 81.5233C99.071 78.7688 98.8817 75.92 98.8817 72.9769C98.8817 71.8072 98.9006 70.9016 98.9385 70.2602C96.8561 70.8639 95.1334 72.2411 93.7704 74.3919C92.4073 76.5426 91.7258 78.9198 91.7258 81.5233C91.7258 84.2778 92.6724 85.655 94.5655 85.655Z" fill="white"/>
</svg>
